<mxfile host="app.diagrams.net" modified="2023-05-14T13:50:09.097Z" agent="Mozilla/5.0 (Windows NT 10.0; Win64; x64) AppleWebKit/537.36 (KHTML, like Gecko) Chrome/113.0.0.0 Safari/537.36" etag="UhmQOIwMaE0v24DUBTlB" version="21.3.0" type="device">
  <diagram name="Страница 1" id="Tk_DKMNB-Bb4KaT22wHg">
    <mxGraphModel dx="2074" dy="1148" grid="1" gridSize="10" guides="1" tooltips="1" connect="1" arrows="1" fold="1" page="1" pageScale="1" pageWidth="827" pageHeight="1169" math="0" shadow="0">
      <root>
        <mxCell id="0" />
        <mxCell id="1" parent="0" />
        <mxCell id="d2VN06MkHhjigpkHt9dM-3" style="edgeStyle=orthogonalEdgeStyle;rounded=0;orthogonalLoop=1;jettySize=auto;html=1;entryX=0.5;entryY=0;entryDx=0;entryDy=0;" edge="1" parent="1" source="d2VN06MkHhjigpkHt9dM-1" target="d2VN06MkHhjigpkHt9dM-2">
          <mxGeometry relative="1" as="geometry" />
        </mxCell>
        <mxCell id="d2VN06MkHhjigpkHt9dM-1" value="Начало&lt;br&gt;changeNumbers" style="ellipse;whiteSpace=wrap;html=1;" vertex="1" parent="1">
          <mxGeometry x="354" y="20" width="120" height="80" as="geometry" />
        </mxCell>
        <mxCell id="d2VN06MkHhjigpkHt9dM-5" style="edgeStyle=orthogonalEdgeStyle;rounded=0;orthogonalLoop=1;jettySize=auto;html=1;entryX=0.5;entryY=0;entryDx=0;entryDy=0;" edge="1" parent="1" source="d2VN06MkHhjigpkHt9dM-2" target="d2VN06MkHhjigpkHt9dM-4">
          <mxGeometry relative="1" as="geometry" />
        </mxCell>
        <mxCell id="d2VN06MkHhjigpkHt9dM-15" value="TRUE" style="edgeStyle=orthogonalEdgeStyle;rounded=0;orthogonalLoop=1;jettySize=auto;html=1;" edge="1" parent="1" source="d2VN06MkHhjigpkHt9dM-2">
          <mxGeometry x="-0.7687" relative="1" as="geometry">
            <mxPoint x="414" y="570" as="targetPoint" />
            <Array as="points">
              <mxPoint x="241" y="160" />
            </Array>
            <mxPoint as="offset" />
          </mxGeometry>
        </mxCell>
        <mxCell id="d2VN06MkHhjigpkHt9dM-2" value="!node" style="rhombus;whiteSpace=wrap;html=1;" vertex="1" parent="1">
          <mxGeometry x="374" y="120" width="80" height="80" as="geometry" />
        </mxCell>
        <mxCell id="d2VN06MkHhjigpkHt9dM-6" value="TRUE" style="edgeStyle=orthogonalEdgeStyle;rounded=0;orthogonalLoop=1;jettySize=auto;html=1;entryX=0.5;entryY=0;entryDx=0;entryDy=0;" edge="1" parent="1" source="d2VN06MkHhjigpkHt9dM-4" target="d2VN06MkHhjigpkHt9dM-7">
          <mxGeometry relative="1" as="geometry">
            <mxPoint x="320" y="260" as="targetPoint" />
            <Array as="points">
              <mxPoint x="314" y="260" />
            </Array>
          </mxGeometry>
        </mxCell>
        <mxCell id="d2VN06MkHhjigpkHt9dM-11" style="edgeStyle=orthogonalEdgeStyle;rounded=0;orthogonalLoop=1;jettySize=auto;html=1;entryX=0.5;entryY=0;entryDx=0;entryDy=0;" edge="1" parent="1" source="d2VN06MkHhjigpkHt9dM-4" target="d2VN06MkHhjigpkHt9dM-8">
          <mxGeometry relative="1" as="geometry" />
        </mxCell>
        <mxCell id="d2VN06MkHhjigpkHt9dM-4" value="&lt;div style=&quot;font-size: 14px; line-height: 19px;&quot;&gt;&lt;span style=&quot;background-color: rgb(255, 255, 255);&quot;&gt;node-&amp;gt;train.number &amp;lt; number&lt;/span&gt;&lt;/div&gt;" style="rhombus;whiteSpace=wrap;html=1;" vertex="1" parent="1">
          <mxGeometry x="374" y="220" width="80" height="80" as="geometry" />
        </mxCell>
        <mxCell id="d2VN06MkHhjigpkHt9dM-14" style="edgeStyle=orthogonalEdgeStyle;rounded=0;orthogonalLoop=1;jettySize=auto;html=1;" edge="1" parent="1" source="d2VN06MkHhjigpkHt9dM-7">
          <mxGeometry relative="1" as="geometry">
            <mxPoint x="420" y="330" as="targetPoint" />
          </mxGeometry>
        </mxCell>
        <mxCell id="d2VN06MkHhjigpkHt9dM-7" value="&lt;div style=&quot;font-size: 14px; line-height: 19px;&quot;&gt;&lt;span style=&quot;background-color: rgb(255, 255, 255);&quot;&gt;node-&amp;gt;train.number = number&lt;/span&gt;&lt;/div&gt;" style="rounded=0;whiteSpace=wrap;html=1;" vertex="1" parent="1">
          <mxGeometry x="254" y="300" width="120" height="60" as="geometry" />
        </mxCell>
        <mxCell id="d2VN06MkHhjigpkHt9dM-12" style="edgeStyle=orthogonalEdgeStyle;rounded=0;orthogonalLoop=1;jettySize=auto;html=1;entryX=0.5;entryY=0;entryDx=0;entryDy=0;" edge="1" parent="1" source="d2VN06MkHhjigpkHt9dM-8" target="d2VN06MkHhjigpkHt9dM-9">
          <mxGeometry relative="1" as="geometry" />
        </mxCell>
        <mxCell id="d2VN06MkHhjigpkHt9dM-8" value="&lt;div style=&quot;font-size: 14px; line-height: 19px;&quot;&gt;&lt;span style=&quot;background-color: rgb(255, 255, 255);&quot;&gt;node-&amp;gt;left = changeNumbers(node-&amp;gt;left, number)&lt;/span&gt;&lt;/div&gt;" style="rounded=0;whiteSpace=wrap;html=1;" vertex="1" parent="1">
          <mxGeometry x="354" y="400" width="120" height="60" as="geometry" />
        </mxCell>
        <mxCell id="d2VN06MkHhjigpkHt9dM-13" style="edgeStyle=orthogonalEdgeStyle;rounded=0;orthogonalLoop=1;jettySize=auto;html=1;entryX=0.5;entryY=0;entryDx=0;entryDy=0;" edge="1" parent="1" source="d2VN06MkHhjigpkHt9dM-9" target="d2VN06MkHhjigpkHt9dM-10">
          <mxGeometry relative="1" as="geometry" />
        </mxCell>
        <mxCell id="d2VN06MkHhjigpkHt9dM-9" value="&lt;div style=&quot;font-size: 14px; line-height: 19px;&quot;&gt;&lt;span style=&quot;background-color: rgb(255, 255, 255);&quot;&gt;node-&amp;gt;right = changeNumbers(node-&amp;gt;right, number)&lt;/span&gt;&lt;/div&gt;" style="rounded=0;whiteSpace=wrap;html=1;" vertex="1" parent="1">
          <mxGeometry x="354" y="490" width="120" height="60" as="geometry" />
        </mxCell>
        <mxCell id="d2VN06MkHhjigpkHt9dM-10" value="Конец" style="ellipse;whiteSpace=wrap;html=1;" vertex="1" parent="1">
          <mxGeometry x="354" y="585" width="120" height="80" as="geometry" />
        </mxCell>
      </root>
    </mxGraphModel>
  </diagram>
</mxfile>
